<svg xmlns="http://www.w3.org/2000/svg" viewBox="0 0 64 64"><title>Access_64x</title><path d="M16.99978,38.5v13c0,3.58984,9.402,6.5,21,6.5s21-2.91016,21-6.5v-13Z" fill="#881421"/><path d="M16.99978,25.5v13c0,3.58984,9.402,6.5,21,6.5s21-2.91016,21-6.5v-13Z" fill="#af2031"/><path d="M16.99978,12.5v13c0,3.58984,9.402,6.5,21,6.5s21-2.91016,21-6.5v-13Z" fill="#c94f60"/><ellipse cx="37.99978" cy="12.5" rx="21" ry="6.5" fill="#e08095"/><path d="M33,20.33008V46.66992a1.73444,1.73444,0,0,1-.04.3999A2.31378,2.31378,0,0,1,30.66992,49H17V18H30.66992A2.326,2.326,0,0,1,33,20.33008Z" opacity="0.2"/><path d="M34,20.33008V44.66992A3.36171,3.36171,0,0,1,30.66992,48H17V17H30.66992A3.34177,3.34177,0,0,1,34,20.33008Z" opacity="0.1"/><path d="M33,20.33008V44.66992A2.326,2.326,0,0,1,30.66992,47H17V18H30.66992A2.326,2.326,0,0,1,33,20.33008Z" opacity="0.2"/><path d="M32,20.33008V44.66992A2.326,2.326,0,0,1,29.66992,47H17V18H29.66992A2.326,2.326,0,0,1,32,20.33008Z" opacity="0.1"/><rect x="4.00022" y="18" width="28" height="28" rx="2.33333" fill="#af2031"/><path d="M16.32381,24.4165h3.43743l5.521,15.167h-3.247l-1.21632-3.61723h-5.6797L13.94406,39.5835h-3.2259Zm3.76531,9.21231L18.32281,28.1395a7.29106,7.29106,0,0,1-.32788-1.23747h-.06346a7.01607,7.01607,0,0,1-.3173,1.2692l-1.78746,5.45758Z" fill="#fff"/></svg>