<svg version="1.1" id="Layer_1" xmlns="http://www.w3.org/2000/svg" x="0" y="0" viewBox="0 0 64 64" xml:space="preserve"><style>.st3{fill:#107c41}.st4,.st5{opacity:.2;enable-background:new}.st5{opacity:.1}</style><path d="M38 8H19.3C18.1 8 17 9 17 10.2V20l21 16.4L59 32V20L38 8z" fill="#21a366"/><path d="M56.7 8H38v12h21v-9.7C59 9.1 58 8 56.7 8z" fill="#33c481"/><path d="M17 20v33.7c0 1.2 1 2.3 2.2 2.3h37.5c1.2 0 2.3-1 2.3-2.2V44L17 20z" fill="#185c37"/><path class="st3" d="M17 20h21v12H17z"/><path class="st4" d="M33 20.3V47c-.2 1.1-1.2 1.9-2.3 1.9H17V18h13.7c1.2 0 2.3 1 2.3 2.3z"/><path class="st5" d="M34 20.3v24.3c0 1.8-1.5 3.3-3.3 3.3H17V17h13.7c1.8 0 3.3 1.5 3.3 3.3z"/><path class="st4" d="M33 20.3v24.3c0 1.2-1 2.3-2.2 2.3H17V18h13.7c1.2 0 2.3 1 2.3 2.3z"/><path class="st5" d="M32 20.3v24.3c0 1.2-1 2.3-2.2 2.3H17V18h12.7c1.2 0 2.3 1 2.3 2.3z"/><path class="st3" d="M6.3 18h23.3c1.2 0 2.3 1 2.3 2.2V43.6c0 1.2-1 2.3-2.2 2.3H6.3C5.1 46 4.1 45.1 4 44V20.3C4 19.1 5 18 6.3 18z"/><path d="M11.2 39.6l4.9-7.6-4.5-7.6h3.6l2.5 4.8c.1.3.3.7.5 1 .2-.4.3-.7.5-1.1l2.6-4.8h3.3L20 31.9l4.7 7.6h-3.5l-2.8-5.3c-.1-.2-.2-.5-.3-.7-.1.2-.2.5-.3.7l-2.9 5.3-3.7.1z" fill="#fff"/><path class="st3" d="M38 32h21v12H38z"/></svg>