<svg id="Layer_1" data-name="Layer 1" xmlns="http://www.w3.org/2000/svg" viewBox="0 0 64 64"><defs><style>.cls-1{fill:#036c70;}.cls-2{fill:none;}.cls-3{fill:#37c6d0;}.cls-4{opacity:0.2;}.cls-5{opacity:0.1;}.cls-6{fill:#1a9ba1;}.cls-7{fill:#038387;}.cls-8{fill:#fff;}</style></defs><title>Forms_64x</title><g id="_64" data-name="64"><path id="Ambient" class="cls-1" d="M56.66667,56H19.33333A2.33333,2.33333,0,0,1,17,53.66667V26.33333L38,19,59,29V53.66667A2.33333,2.33333,0,0,1,56.66667,56Z"/><rect class="cls-2" x="4" y="4" width="56" height="56"/><path class="cls-3" d="M19.333,8H56.667A2.333,2.333,0,0,1,59,10.333V32a0,0,0,0,1,0,0H17a0,0,0,0,1,0,0V10.333A2.333,2.333,0,0,1,19.333,8Z"/><path class="cls-4" d="M33,20.33008V46.66992a1.73444,1.73444,0,0,1-.04.3999A2.31378,2.31378,0,0,1,30.66992,49H17V18H30.66992A2.326,2.326,0,0,1,33,20.33008Z"/><path class="cls-5" d="M34,20.33008V44.66992A3.36171,3.36171,0,0,1,30.66992,48H17V17H30.66992A3.34177,3.34177,0,0,1,34,20.33008Z"/><path class="cls-4" d="M33,20.33008V44.66992A2.326,2.326,0,0,1,30.66992,47H17V18H30.66992A2.326,2.326,0,0,1,33,20.33008Z"/><path class="cls-5" d="M32,20.33008V44.66992A2.326,2.326,0,0,1,29.66992,47H17V18H29.66992A2.326,2.326,0,0,1,32,20.33008Z"/><rect class="cls-6" x="41" y="38" width="12" height="12"/><circle class="cls-6" cx="47" cy="20" r="8"/><circle class="cls-1" cx="47" cy="20" r="4"/><rect class="cls-7" x="4.00022" y="18" width="28" height="28" rx="2.33333"/><path class="cls-8" d="M22.72613,26.88319h-6.568v4.1354h6.12378v2.45375H16.15814v6.1132h-2.972V24.41887h9.54Z"/></g></svg>