<svg xmlns="http://www.w3.org/2000/svg" viewBox="0 0 64 64"><path d="M56 56H19.332A2.332 2.332 0 0 1 17 53.668V10.332A2.332 2.332 0 0 1 19.332 8h37.336a2.324 2.324 0 0 1 2.322 2.332L59 53a3.635 3.635 0 0 1-3 3z" fill="#ca64ea"/><path fill="#ae4bd5" d="M47 20h12v12H47z"/><path fill="#9332bf" d="M47 32h12v12H47z"/><path d="M47 44h12v9.67A2.33 2.33 0 0 1 56.67 56H47V44z" fill="#7719aa"/><path d="M33 20.33v26.34a1.734 1.734 0 0 1-.04.4A2.314 2.314 0 0 1 30.67 49H17V18h13.67A2.326 2.326 0 0 1 33 20.33z" opacity=".2"/><path d="M34 20.33v24.34A3.362 3.362 0 0 1 30.67 48H17V17h13.67A3.342 3.342 0 0 1 34 20.33z" opacity=".1"/><path d="M33 20.33v24.34A2.326 2.326 0 0 1 30.67 47H17V18h13.67A2.326 2.326 0 0 1 33 20.33z" opacity=".2"/><path d="M32 20.33v24.34A2.326 2.326 0 0 1 29.67 47H17V18h12.67A2.326 2.326 0 0 1 32 20.33z" opacity=".1"/><rect x="4" y="18" width="28" height="28" rx="2.333" fill="#7719aa"/><path d="M11.669 24.417h3.163l6.215 10.058q.425.677.637 1.09h.04a15.437 15.437 0 0 1-.09-2.063v-9.085h2.697v15.166h-2.96L14.922 29.25a8.112 8.112 0 0 1-.576-1.068h-.05a22.146 22.146 0 0 1 .08 2.263v9.138H11.67z" fill="#fff"/></svg>