<svg id="Layer_1" data-name="Layer 1" xmlns="http://www.w3.org/2000/svg" xmlns:xlink="http://www.w3.org/1999/xlink" viewBox="0 0 26.56 20.31"><defs><style>.cls-1{fill:#fff;}.cls-2{fill:none;}.cls-3{clip-path:url(#clip-path);}.cls-4{mask:url(#mask);}.cls-5{fill:url(#linear-gradient);}.cls-6{fill-opacity:0.24;}.cls-7{fill-opacity:0.32;}.cls-8{fill:url(#linear-gradient-2);}.cls-9{fill:url(#linear-gradient-3);}</style><clipPath id="clip-path" transform="translate(1.3 -2.6)"><rect class="cls-2" width="25" height="25"/></clipPath><mask id="mask" x="0" y="0" width="26.56" height="20.31" maskUnits="userSpaceOnUse"><g transform="translate(1.3 -2.6)"><g id="mask0"><path class="cls-1" d="M15.94,2.6a1.05,1.05,0,0,1,.78.35l7.92,8.86a1,1,0,0,1,0,1.38l-7.92,8.86a1.05,1.05,0,0,1-.78.35H1a1,1,0,0,1-.78-1.74l7.3-8.16L.25,4.34A1,1,0,0,1,1,2.6Z"/></g></g></mask><linearGradient id="linear-gradient" x1="11.2" y1="9.68" x2="7.55" y2="21.4" gradientTransform="matrix(1, 0, 0, -1, 0, 24)" gradientUnits="userSpaceOnUse"><stop offset="0" stop-color="#0d36a5"/><stop offset="1" stop-color="#1152d4"/></linearGradient><linearGradient id="linear-gradient-2" x1="11.98" y1="21.4" x2="11.98" y2="1.6" gradientTransform="matrix(1, 0, 0, -1, 0, 24)" gradientUnits="userSpaceOnUse"><stop offset="0" stop-color="#84caff"/><stop offset="1" stop-color="#61b1fb"/></linearGradient><linearGradient id="linear-gradient-3" x1="9.77" y1="21.4" x2="9.77" y2="1.6" gradientTransform="matrix(1, 0, 0, -1, 0, 24)" gradientUnits="userSpaceOnUse"><stop offset="0" stop-color="#3b90f5"/><stop offset="1" stop-color="#2a78ee"/></linearGradient></defs><g class="cls-3"><g class="cls-3"><g class="cls-4"><path class="cls-5" d="M16.41,2.6,7.55,12.5-1.3,2.6Z" transform="translate(1.3 -2.6)"/><path class="cls-6" d="M16.41,2.71-1.3,22.5H16.41l8.85-9.9Z" transform="translate(1.3 -2.6)"/><path class="cls-7" d="M16.41,3.12-1.3,22.92H16.41L25.26,13Z" transform="translate(1.3 -2.6)"/><path class="cls-8" d="M-1.3,22.4,16.41,2.6l8.85,9.9-8.85,9.9Z" transform="translate(1.3 -2.6)"/><path class="cls-9" d="M-1.3,22.4,16.41,2.6l4.42,4.95L7.55,22.4Z" transform="translate(1.3 -2.6)"/></g></g></g></svg>