<svg id="Layer_1" data-name="Layer 1" xmlns="http://www.w3.org/2000/svg" xmlns:xlink="http://www.w3.org/1999/xlink" viewBox="0 0 25 25"><defs><style>.cls-1{fill:#fff;}.cls-2{fill:none;}.cls-3{clip-path:url(#clip-path);}.cls-4{mask:url(#mask);}.cls-5{fill:url(#linear-gradient);}.cls-6{fill-opacity:0.32;}.cls-7{fill-opacity:0.24;}.cls-8{fill:url(#linear-gradient-2);}.cls-9{fill:url(#linear-gradient-3);}</style><clipPath id="clip-path"><rect class="cls-2" width="25" height="25"/></clipPath><mask id="mask" x="-0.52" y="0" width="26.04" height="25.52" maskUnits="userSpaceOnUse"><g id="mask0"><path class="cls-1" d="M.38,11.47a1.56,1.56,0,0,0,0,2.06L9.63,24.1a1,1,0,0,0,1.57,0l1-1.13,1.09,1.19a1,1,0,0,0,1.54,0l9.72-10.6a1.57,1.57,0,0,0,0-2.12L14.83.84a1,1,0,0,0-1.54,0L12.2,2,11.2.9A1,1,0,0,0,9.63.9Z"/></g></mask><linearGradient id="linear-gradient" x1="15.95" y1="-2.04" x2="1.37" y2="33.64" gradientTransform="matrix(1, 0, 0, -1, 0, 24)" gradientUnits="userSpaceOnUse"><stop offset="0" stop-color="#742774"/><stop offset="1" stop-color="#bb35a4"/></linearGradient><linearGradient id="linear-gradient-2" x1="9.34" y1="24.48" x2="21.32" y2="-0.52" gradientTransform="matrix(1, 0, 0, -1, 0, 24)" gradientUnits="userSpaceOnUse"><stop offset="0" stop-color="#e48cc7"/><stop offset="1" stop-color="#d467b9"/></linearGradient><linearGradient id="linear-gradient-3" x1="18.2" y1="17.12" x2="21.85" y2="5.92" gradientTransform="matrix(1, 0, 0, -1, 0, 24)" gradientUnits="userSpaceOnUse"><stop offset="0" stop-color="#e9a1cb"/><stop offset="1" stop-color="#e48cc7"/></linearGradient></defs><g class="cls-3"><g class="cls-3"><g class="cls-3"><g class="cls-4"><path class="cls-5" d="M10.42,25-.52,12.5,10.42,0,21.35,12.5Z"/><path class="cls-6" d="M14.06.52,25.52,13,14.06,25.52,9,20a1,1,0,0,1,0-1.4l4.44-4.85a1,1,0,0,0,0-1.4L9,7.47a1,1,0,0,1,0-1.4Z"/><path class="cls-7" d="M14.06.1,25.52,12.6,14.06,25.1,9,19.55a1,1,0,0,1,0-1.4l4.44-4.85a1,1,0,0,0,0-1.4L9,7.05a1,1,0,0,1,0-1.4Z"/><path class="cls-8" d="M14.06,0,25.52,12.5,14.06,25,9,19.45a1,1,0,0,1,0-1.4l4.44-4.85a1,1,0,0,0,0-1.4L9,7a1,1,0,0,1,0-1.4Z"/><path class="cls-9" d="M19,7.09a1,1,0,0,1,1.54,0l5,5.41-5,5.41a1,1,0,0,1-1.54,0l-4-4.35a1.57,1.57,0,0,1,0-2.12Z"/></g></g></g></g></svg>