<svg data-name="Layer 1" xmlns="http://www.w3.org/2000/svg" viewBox="0 0 64 64"><path d="M50.51 14a5.26 5.26 0 0 1 2.2.46 5.44 5.44 0 0 1 1.74 1.17A5.52 5.52 0 0 1 56 19.57v21.51a6.71 6.71 0 0 1-.35 2.17 5.63 5.63 0 0 1-1 1.74A4.93 4.93 0 0 1 53 46.14a5.15 5.15 0 0 1-2.14.43h-1.72v-3.48h1.72a1.6 1.6 0 0 0 .93-.24 1.8 1.8 0 0 0 .51-.56 2.39 2.39 0 0 0 .22-.67 5 5 0 0 0 0-.59V19.54A2.07 2.07 0 0 0 52 18a1.94 1.94 0 0 0-1.47-.61h-37A1.94 1.94 0 0 0 12 18a2.07 2.07 0 0 0-.59 1.5v22.3a2 2 0 0 0 .08.59.6.6 0 0 0 .37.4 3.41 3.41 0 0 0 1 .25 19.34 19.34 0 0 0 2 .08v3.48a15.72 15.72 0 0 1-2.92-.24 5.81 5.81 0 0 1-2.15-.81 3.62 3.62 0 0 1-1.33-1.47 5.12 5.12 0 0 1-.46-2.3V19.57a5.46 5.46 0 0 1 .43-2.17 5.16 5.16 0 0 1 1.15-1.77 5 5 0 0 1 1.74-1.17 5.06 5.06 0 0 1 2.17-.46m5.65 22.29a2.56 2.56 0 0 1 2.57 2.57v8.57a2.57 2.57 0 1 1-5.14 0v-8.57a2.56 2.56 0 0 1 2.57-2.57m8.57-6.86A2.56 2.56 0 0 1 30.29 32v15.43a2.58 2.58 0 1 1-5.15 0V32a2.56 2.56 0 0 1 2.57-2.57m8.58 3.43a2.56 2.56 0 0 1 2.57 2.57v12a2.58 2.58 0 1 1-5.15 0v-12a2.56 2.56 0 0 1 2.58-2.57m8.57-8.57a2.56 2.56 0 0 1 2.57 2.57v20.57a2.57 2.57 0 1 1-5.14 0V26.86a2.56 2.56 0 0 1 2.57-2.57z"/><path d="M50.51 14a5.26 5.26 0 0 1 2.2.46 5.44 5.44 0 0 1 1.74 1.17A5.52 5.52 0 0 1 56 19.57v21.51a6.71 6.71 0 0 1-.35 2.17 5.63 5.63 0 0 1-1 1.74A4.93 4.93 0 0 1 53 46.14a5.15 5.15 0 0 1-2.14.43h-1.72v-3.48h1.72a1.6 1.6 0 0 0 .93-.24 1.8 1.8 0 0 0 .51-.56 2.39 2.39 0 0 0 .22-.67 5 5 0 0 0 0-.59V19.54A2.07 2.07 0 0 0 52 18a1.94 1.94 0 0 0-1.47-.61h-37A1.94 1.94 0 0 0 12 18a2.07 2.07 0 0 0-.59 1.5v22.3a2 2 0 0 0 .08.59.6.6 0 0 0 .37.4 3.41 3.41 0 0 0 1 .25 19.34 19.34 0 0 0 2 .08v3.48a15.72 15.72 0 0 1-2.92-.24 5.81 5.81 0 0 1-2.15-.81 3.62 3.62 0 0 1-1.33-1.47 5.12 5.12 0 0 1-.46-2.3V19.57a5.46 5.46 0 0 1 .43-2.17 5.16 5.16 0 0 1 1.15-1.77 5 5 0 0 1 1.74-1.17 5.06 5.06 0 0 1 2.17-.46m5.65 22.29a2.56 2.56 0 0 1 2.57 2.57v8.57a2.57 2.57 0 1 1-5.14 0v-8.57a2.56 2.56 0 0 1 2.57-2.57m8.57-6.86A2.56 2.56 0 0 1 30.29 32v15.43a2.58 2.58 0 1 1-5.15 0V32a2.56 2.56 0 0 1 2.57-2.57m8.58 3.43a2.56 2.56 0 0 1 2.57 2.57v12a2.58 2.58 0 1 1-5.15 0v-12a2.56 2.56 0 0 1 2.58-2.57m8.57-8.57a2.56 2.56 0 0 1 2.57 2.57v20.57a2.57 2.57 0 1 1-5.14 0V26.86a2.56 2.56 0 0 1 2.57-2.57z" fill="#3a3a38"/></svg>