<svg xmlns="http://www.w3.org/2000/svg" viewBox="0 0 64 64"><path d="M59 31.75v.5A23.823 23.823 0 0 1 35.25 56h-.5a23.65 23.65 0 0 1-16.79-7c-.32-.32-.64-.66-.94-1-.29-.32-.57-.66-.84-1A23.56 23.56 0 0 1 11 32.25v-.5A23.5 23.5 0 0 1 15.43 18a11.833 11.833 0 0 1 .75-1 23.704 23.704 0 0 1 18.57-9h.5A23.823 23.823 0 0 1 59 31.75z" fill="#d35230"/><path d="M59 32v-.228A23.842 23.842 0 0 0 35.228 8H35v24z" fill="#ff8f6b"/><path d="M11 31.772V32h24V8h-.227A23.842 23.842 0 0 0 11 31.772z" fill="#ed6c47"/><path d="M33 20.33v26.34a1.734 1.734 0 0 1-.04.4A2.314 2.314 0 0 1 30.67 49H17.96c-.32-.32-.64-.66-.94-1-.29-.32-.57-.66-.84-1A23.56 23.56 0 0 1 11 32.25v-.5A23.5 23.5 0 0 1 15.43 18h15.24A2.326 2.326 0 0 1 33 20.33z" opacity=".2"/><path d="M34 20.33v24.34A3.362 3.362 0 0 1 30.67 48H17.02c-.29-.32-.57-.66-.84-1A23.56 23.56 0 0 1 11 32.25v-.5A23.5 23.5 0 0 1 15.43 18a11.833 11.833 0 0 1 .75-1h14.49A3.342 3.342 0 0 1 34 20.33z" opacity=".1"/><path d="M33 20.33v24.34A2.326 2.326 0 0 1 30.67 47H16.18A23.56 23.56 0 0 1 11 32.25v-.5A23.5 23.5 0 0 1 15.43 18h15.24A2.326 2.326 0 0 1 33 20.33z" opacity=".2"/><path d="M32 20.33v24.34A2.326 2.326 0 0 1 29.67 47H16.18A23.56 23.56 0 0 1 11 32.25v-.5A23.5 23.5 0 0 1 15.43 18h14.24A2.326 2.326 0 0 1 32 20.33z" opacity=".1"/><rect x="4" y="18" width="28" height="28" rx="2.334" fill="#c43e1c"/><path d="M18.463 24.157a6.164 6.164 0 0 1 4.152 1.248 4.519 4.519 0 0 1 1.441 3.612 5.13 5.13 0 0 1-.712 2.701 4.813 4.813 0 0 1-2.027 1.839 6.728 6.728 0 0 1-3.044.656h-2.881v5.5h-2.955V24.157zm-3.071 7.68h2.543a3.245 3.245 0 0 0 2.248-.688 2.578 2.578 0 0 0 .76-2.013q0-2.57-2.913-2.57h-2.638z" fill="#fff"/></svg>