<svg xmlns="http://www.w3.org/2000/svg" viewBox="0 0 64 64"><title>To-Do_64x</title><rect width="64" height="64" fill="none"/><path d="M13.72509,22.56659l-7.78351,7.7835a2.33334,2.33334,0,0,0,0,3.29983L17.02492,44.73326,28.10825,33.64993,17.02492,22.56659A2.33334,2.33334,0,0,0,13.72509,22.56659Z" fill="#185abd"/><path d="M58.05831,19.26679l-7.7835-7.78349a2.33341,2.33341,0,0,0-3.29983,0L37.5416,20.91668h0L26.45826,32h.00008L17.025,41.43339a2.3333,2.3333,0,0,0,0,3.29983l7.7835,7.78343a2.33321,2.33321,0,0,0,3.29977,0l9.43345-9.43331-.00007-.00007L48.62493,32l9.43338-9.43338A2.3333,2.3333,0,0,0,58.05831,19.26679Z" fill="#41a5ee"/></svg>