<?xml version="1.0" encoding="utf-8"?>
<!-- Generator: Adobe Illustrator 24.1.0, SVG Export Plug-In . SVG Version: 6.00 Build 0)  -->
<svg version="1.1" id="Ebene_1" xmlns="http://www.w3.org/2000/svg" xmlns:xlink="http://www.w3.org/1999/xlink" x="0px" y="0px"
	 viewBox="0 0 382.68 85.04" style="enable-background:new 0 0 382.68 85.04;" xml:space="preserve">
<style type="text/css">
	.st0{fill:#fff;}
	.st1{fill-rule:evenodd;clip-rule:evenodd;fill:#fff;}
</style>
<g>
	<polygon class="st0" points="88.3,53.86 88.3,23.52 77.48,23.52 77.48,17.35 106.45,17.35 106.45,23.52 95.69,23.52 95.69,53.86 
		88.3,53.86 	"/>
	<polygon class="st0" points="111.26,53.86 111.26,17.35 138.29,17.35 138.29,23.52 118.66,23.52 118.66,31.63 136.92,31.63 
		136.92,37.8 118.66,37.8 118.66,47.69 139.01,47.69 139.01,53.86 111.26,53.86 	"/>
	<polygon class="st0" points="145.43,53.86 145.43,17.65 152.82,17.65 152.82,47.69 171.13,47.69 171.13,53.86 145.43,53.86 	"/>
	<polygon class="st0" points="176.4,53.86 176.4,17.35 203.43,17.35 203.43,23.52 183.8,23.52 183.8,31.63 202.06,31.63 
		202.06,37.8 183.8,37.8 183.8,47.69 204.15,47.69 204.15,53.86 176.4,53.86 	"/>
	<polygon class="st0" points="206.67,53.86 219.27,34.82 207.84,17.35 216.46,17.35 223.64,28.22 230.84,17.35 239.46,17.35 
		228.01,34.83 240.58,53.86 231.72,53.86 223.64,41.5 215.54,53.86 206.67,53.86 	"/>
	<path class="st1" d="M244.33,53.86V17.35h15.53c3.9,0,6.74,0.33,8.51,0.98c1.77,0.66,3.19,1.82,4.25,3.5
		c1.06,1.68,1.6,3.59,1.6,5.75c0,2.74-0.8,5-2.41,6.79c-1.61,1.79-4.01,2.91-7.2,3.37c1.59,0.93,2.9,1.95,3.93,3.06
		c1.03,1.11,2.43,3.09,4.18,5.93l4.46,7.12h-8.81l-5.29-7.97c-1.9-2.83-3.2-4.62-3.9-5.35c-0.7-0.74-1.44-1.24-2.22-1.52
		c-0.78-0.27-2.03-0.41-3.72-0.41h-1.5v15.25H244.33L244.33,53.86z M251.72,32.8h5.45c3.54,0,5.74-0.15,6.62-0.45
		c0.88-0.3,1.57-0.82,2.07-1.55c0.5-0.73,0.75-1.65,0.75-2.74c0-1.23-0.33-2.23-0.98-2.98c-0.66-0.76-1.58-1.23-2.78-1.43
		c-0.6-0.08-2.39-0.12-5.38-0.12h-5.75V32.8L251.72,32.8z"/>
	<path class="st1" d="M279.66,35.83c0-3.73,0.56-6.86,1.67-9.39c0.83-1.86,1.96-3.54,3.4-5.02c1.44-1.48,3.01-2.58,4.72-3.29
		c2.28-0.97,4.9-1.45,7.88-1.45c5.38,0,9.69,1.67,12.92,5.02c3.23,3.34,4.85,8,4.85,13.95c0,5.91-1.61,10.53-4.81,13.87
		c-3.21,3.34-7.49,5-12.86,5c-5.43,0-9.75-1.66-12.96-4.98C281.26,46.23,279.66,41.65,279.66,35.83L279.66,35.83z M287.25,35.58
		c0,4.14,0.96,7.28,2.87,9.42c1.91,2.14,4.35,3.2,7.29,3.2c2.95,0,5.36-1.06,7.25-3.18c1.89-2.12,2.83-5.3,2.83-9.54
		c0-4.19-0.92-7.32-2.76-9.38c-1.84-2.06-4.28-3.09-7.33-3.09c-3.05,0-5.5,1.04-7.37,3.13C288.19,28.22,287.25,31.37,287.25,35.58
		L287.25,35.58z"/>
	<polygon class="st0" points="321.03,53.86 321.03,17.65 328.43,17.65 328.43,47.69 346.73,47.69 346.73,53.86 321.03,53.86 	"/>
	<polygon class="st0" points="352.21,53.86 352.21,17.65 359.6,17.65 359.6,47.69 377.91,47.69 377.91,53.86 352.21,53.86 	"/>
	<polygon class="st0" points="88.3,71.39 88.3,60.65 95.54,60.65 95.54,61.91 89.72,61.91 89.72,65.25 94.76,65.25 94.76,66.51 
		89.72,66.51 89.72,71.39 88.3,71.39 	"/>
	<path class="st0" d="M107.13,60.65h1.43v6.2c0,1.08-0.12,1.94-0.37,2.57c-0.24,0.63-0.68,1.15-1.32,1.55
		c-0.64,0.4-1.47,0.6-2.5,0.6c-1,0-1.83-0.17-2.46-0.52c-0.64-0.35-1.09-0.85-1.37-1.51c-0.27-0.66-0.41-1.55-0.41-2.69v-6.2h1.42
		v6.2c0,0.93,0.09,1.62,0.26,2.06c0.17,0.44,0.47,0.78,0.89,1.02c0.42,0.24,0.94,0.36,1.54,0.36c1.04,0,1.78-0.24,2.22-0.71
		c0.44-0.47,0.66-1.38,0.66-2.73V60.65L107.13,60.65z"/>
	<polygon class="st0" points="113.57,71.39 113.57,60.65 115,60.65 115,70.13 120.28,70.13 120.28,71.39 113.57,71.39 	"/>
	<polygon class="st0" points="124.62,71.39 124.62,60.65 126.05,60.65 126.05,70.13 131.33,70.13 131.33,71.39 124.62,71.39 	"/>
	<path class="st0" d="M141.63,67.94l1.33-0.12c0.06,0.54,0.21,0.98,0.44,1.33c0.23,0.35,0.59,0.62,1.08,0.84
		c0.49,0.21,1.04,0.32,1.65,0.32c0.54,0,1.02-0.08,1.43-0.24c0.41-0.16,0.72-0.38,0.93-0.67c0.2-0.28,0.3-0.59,0.3-0.92
		c0-0.34-0.1-0.63-0.29-0.88c-0.2-0.25-0.52-0.46-0.97-0.63c-0.29-0.11-0.93-0.29-1.91-0.52c-0.99-0.24-1.68-0.46-2.07-0.67
		c-0.51-0.27-0.89-0.6-1.14-1c-0.25-0.4-0.38-0.84-0.38-1.34c0-0.54,0.15-1.05,0.46-1.52c0.31-0.47,0.76-0.83,1.35-1.08
		c0.59-0.24,1.25-0.37,1.97-0.37c0.8,0,1.5,0.13,2.11,0.38c0.61,0.26,1.08,0.63,1.4,1.13c0.33,0.5,0.5,1.06,0.53,1.69l-1.37,0.11
		c-0.07-0.68-0.32-1.19-0.74-1.54c-0.42-0.35-1.05-0.52-1.87-0.52c-0.86,0-1.49,0.16-1.88,0.47c-0.39,0.31-0.59,0.69-0.59,1.14
		c0,0.38,0.14,0.7,0.42,0.95c0.27,0.25,0.99,0.5,2.14,0.77c1.16,0.26,1.95,0.49,2.38,0.68c0.62,0.29,1.08,0.65,1.38,1.09
		c0.3,0.44,0.45,0.95,0.45,1.52c0,0.57-0.16,1.11-0.49,1.61c-0.33,0.5-0.8,0.9-1.41,1.18c-0.61,0.28-1.3,0.42-2.07,0.42
		c-0.97,0-1.78-0.14-2.44-0.43c-0.66-0.28-1.17-0.71-1.54-1.28C141.85,69.3,141.65,68.65,141.63,67.94L141.63,67.94z"/>
	<polygon class="st0" points="154.82,71.39 154.82,60.65 162.57,60.65 162.57,61.91 156.24,61.91 156.24,65.21 162.17,65.21 
		162.17,66.47 156.24,66.47 156.24,70.13 162.83,70.13 162.83,71.39 154.82,71.39 	"/>
	<path class="st1" d="M167.51,71.39V60.65h4.76c0.96,0,1.68,0.1,2.18,0.29c0.5,0.19,0.9,0.53,1.19,1.02
		c0.3,0.49,0.45,1.03,0.45,1.62c0,0.76-0.25,1.4-0.74,1.93c-0.49,0.52-1.25,0.85-2.28,1c0.38,0.18,0.66,0.36,0.86,0.54
		c0.41,0.38,0.81,0.86,1.18,1.43l1.86,2.93h-1.77l-1.42-2.24c-0.41-0.65-0.76-1.14-1.02-1.48c-0.27-0.34-0.51-0.58-0.72-0.72
		c-0.21-0.14-0.43-0.23-0.65-0.29c-0.16-0.03-0.42-0.05-0.79-0.05h-1.65v4.77H167.51L167.51,71.39z M168.93,65.39h3.05
		c0.65,0,1.15-0.07,1.52-0.2c0.36-0.13,0.64-0.35,0.83-0.64c0.19-0.29,0.28-0.62,0.28-0.96c0-0.51-0.18-0.93-0.55-1.25
		c-0.37-0.33-0.95-0.49-1.74-0.49h-3.4V65.39L168.93,65.39z"/>
	<path class="st0" d="M183.84,71.39l-4.15-10.74h1.54l2.79,7.8c0.22,0.62,0.41,1.21,0.56,1.76c0.17-0.59,0.36-1.17,0.58-1.76
		l2.9-7.8h1.45l-4.19,10.74H183.84L183.84,71.39z"/>
	<polygon class="st0" points="193.7,71.39 193.7,60.65 195.13,60.65 195.13,71.39 193.7,71.39 	"/>
	<path class="st0" d="M207.97,67.62l1.43,0.36c-0.3,1.17-0.83,2.06-1.61,2.67c-0.77,0.61-1.72,0.92-2.84,0.92
		c-1.15,0-2.1-0.24-2.82-0.71c-0.72-0.47-1.28-1.15-1.65-2.05c-0.38-0.89-0.57-1.85-0.57-2.88c0-1.12,0.21-2.09,0.64-2.93
		c0.43-0.83,1.03-1.46,1.82-1.9c0.79-0.43,1.65-0.65,2.6-0.65c1.07,0,1.98,0.27,2.71,0.82c0.73,0.55,1.24,1.32,1.53,2.31l-1.4,0.33
		c-0.25-0.78-0.61-1.35-1.08-1.71c-0.47-0.36-1.07-0.53-1.78-0.53c-0.82,0-1.51,0.2-2.07,0.59c-0.55,0.4-0.94,0.93-1.17,1.59
		c-0.22,0.67-0.34,1.35-0.34,2.06c0,0.91,0.13,1.71,0.4,2.39c0.27,0.68,0.68,1.19,1.24,1.53c0.56,0.34,1.17,0.51,1.82,0.51
		c0.79,0,1.46-0.23,2.01-0.69C207.41,69.2,207.78,68.52,207.97,67.62L207.97,67.62z"/>
	<polygon class="st0" points="213.89,71.39 213.89,60.65 221.65,60.65 221.65,61.91 215.32,61.91 215.32,65.21 221.25,65.21 
		221.25,66.47 215.32,66.47 215.32,70.13 221.9,70.13 221.9,71.39 213.89,71.39 	"/>
	<path class="st1" d="M233.41,71.39V60.65h3.7c0.84,0,1.47,0.05,1.91,0.15c0.62,0.14,1.14,0.4,1.58,0.77
		c0.57,0.48,0.99,1.09,1.27,1.84c0.28,0.74,0.42,1.6,0.42,2.55c0,0.82-0.1,1.54-0.29,2.17c-0.19,0.63-0.44,1.15-0.73,1.56
		c-0.3,0.41-0.62,0.74-0.98,0.97c-0.35,0.24-0.78,0.42-1.28,0.54c-0.5,0.12-1.07,0.18-1.72,0.18H233.41L233.41,71.39z M234.84,70.13
		h2.29c0.71,0,1.26-0.06,1.66-0.2c0.4-0.13,0.72-0.32,0.96-0.56c0.34-0.34,0.6-0.79,0.79-1.36c0.19-0.57,0.28-1.26,0.28-2.07
		c0-1.12-0.18-1.99-0.55-2.6c-0.37-0.6-0.82-1.01-1.34-1.21c-0.38-0.15-0.99-0.22-1.84-0.22h-2.25V70.13L234.84,70.13z"/>
	<polygon class="st0" points="247.19,71.39 247.19,60.65 248.62,60.65 248.62,71.39 247.19,71.39 	"/>
	<path class="st0" d="M253.35,67.94l1.34-0.12c0.06,0.54,0.21,0.98,0.44,1.33c0.23,0.35,0.59,0.62,1.08,0.84
		c0.49,0.21,1.04,0.32,1.65,0.32c0.54,0,1.02-0.08,1.43-0.24c0.42-0.16,0.72-0.38,0.93-0.67c0.2-0.28,0.3-0.59,0.3-0.92
		c0-0.34-0.1-0.63-0.29-0.88c-0.2-0.25-0.52-0.46-0.97-0.63c-0.29-0.11-0.93-0.29-1.91-0.52c-0.99-0.24-1.68-0.46-2.07-0.67
		c-0.51-0.27-0.89-0.6-1.14-1c-0.25-0.4-0.38-0.84-0.38-1.34c0-0.54,0.15-1.05,0.46-1.52c0.31-0.47,0.76-0.83,1.35-1.08
		c0.59-0.24,1.25-0.37,1.97-0.37c0.8,0,1.5,0.13,2.11,0.38c0.61,0.26,1.08,0.63,1.4,1.13c0.33,0.5,0.5,1.06,0.53,1.69l-1.37,0.11
		c-0.07-0.68-0.32-1.19-0.74-1.54c-0.42-0.35-1.05-0.52-1.87-0.52c-0.86,0-1.48,0.16-1.88,0.47c-0.39,0.31-0.59,0.69-0.59,1.14
		c0,0.38,0.14,0.7,0.42,0.95c0.27,0.25,0.99,0.5,2.14,0.77c1.16,0.26,1.95,0.49,2.38,0.68c0.62,0.29,1.08,0.65,1.38,1.09
		c0.3,0.44,0.45,0.95,0.45,1.52c0,0.57-0.16,1.11-0.49,1.61s-0.79,0.9-1.41,1.18c-0.61,0.28-1.3,0.42-2.07,0.42
		c-0.97,0-1.78-0.14-2.44-0.43c-0.66-0.28-1.17-0.71-1.54-1.28C253.56,69.3,253.37,68.65,253.35,67.94L253.35,67.94z"/>
	<polygon class="st0" points="269.23,71.39 269.23,61.91 265.69,61.91 265.69,60.65 274.2,60.65 274.2,61.91 270.66,61.91 
		270.66,71.39 269.23,71.39 	"/>
	<path class="st1" d="M278.4,71.39V60.65h4.76c0.96,0,1.68,0.1,2.18,0.29c0.5,0.19,0.89,0.53,1.19,1.02
		c0.3,0.49,0.45,1.03,0.45,1.62c0,0.76-0.25,1.4-0.74,1.93c-0.49,0.52-1.25,0.85-2.28,1c0.38,0.18,0.66,0.36,0.86,0.54
		c0.41,0.38,0.81,0.86,1.18,1.43l1.86,2.93h-1.78l-1.42-2.24c-0.41-0.65-0.76-1.14-1.02-1.48c-0.27-0.34-0.51-0.58-0.72-0.72
		c-0.21-0.14-0.43-0.23-0.65-0.29c-0.16-0.03-0.42-0.05-0.79-0.05h-1.65v4.77H278.4L278.4,71.39z M279.83,65.39h3.05
		c0.65,0,1.16-0.07,1.52-0.2c0.37-0.13,0.64-0.35,0.83-0.64c0.19-0.29,0.29-0.62,0.29-0.96c0-0.51-0.18-0.93-0.55-1.25
		c-0.37-0.33-0.95-0.49-1.74-0.49h-3.39V65.39L279.83,65.39z"/>
	<polygon class="st0" points="292.15,71.39 292.15,60.65 293.58,60.65 293.58,71.39 292.15,71.39 	"/>
	<path class="st1" d="M298.71,71.39V60.65h4.03c0.82,0,1.48,0.11,1.97,0.33c0.5,0.22,0.88,0.55,1.16,1
		c0.28,0.45,0.42,0.93,0.42,1.42c0,0.46-0.12,0.89-0.37,1.3c-0.25,0.4-0.62,0.73-1.12,0.98c0.65,0.19,1.15,0.52,1.5,0.97
		s0.52,1,0.52,1.63c0,0.5-0.11,0.97-0.32,1.4c-0.21,0.43-0.48,0.77-0.79,1c-0.31,0.23-0.71,0.41-1.18,0.53
		c-0.47,0.12-1.05,0.18-1.73,0.18H298.71L298.71,71.39z M300.14,65.16h2.32c0.63,0,1.08-0.04,1.36-0.12
		c0.36-0.11,0.63-0.29,0.82-0.54s0.28-0.56,0.28-0.94c0-0.36-0.09-0.67-0.26-0.94c-0.17-0.27-0.42-0.46-0.73-0.56
		c-0.32-0.1-0.86-0.15-1.63-0.15h-2.15V65.16L300.14,65.16z M300.14,70.13h2.68c0.46,0,0.78-0.02,0.97-0.05
		c0.33-0.06,0.6-0.16,0.82-0.29c0.22-0.14,0.4-0.34,0.54-0.6c0.14-0.26,0.21-0.56,0.21-0.91c0-0.4-0.1-0.75-0.31-1.05
		c-0.21-0.3-0.49-0.51-0.86-0.62c-0.36-0.12-0.89-0.18-1.57-0.18h-2.48V70.13L300.14,70.13z"/>
	<path class="st0" d="M318.49,60.65h1.43v6.2c0,1.08-0.12,1.94-0.37,2.57c-0.24,0.63-0.68,1.15-1.32,1.55
		c-0.64,0.4-1.47,0.6-2.5,0.6c-1,0-1.83-0.17-2.46-0.52c-0.64-0.35-1.09-0.85-1.37-1.51c-0.27-0.66-0.41-1.55-0.41-2.69v-6.2h1.42
		v6.2c0,0.93,0.09,1.62,0.26,2.06c0.17,0.44,0.47,0.78,0.89,1.02c0.42,0.24,0.93,0.36,1.54,0.36c1.04,0,1.78-0.24,2.22-0.71
		c0.44-0.47,0.66-1.38,0.66-2.73V60.65L318.49,60.65z"/>
	<polygon class="st0" points="327.73,71.39 327.73,61.91 324.19,61.91 324.19,60.65 332.69,60.65 332.69,61.91 329.16,61.91 
		329.16,71.39 327.73,71.39 	"/>
	<path class="st1" d="M336.19,66.16c0-1.78,0.48-3.17,1.44-4.18c0.96-1.01,2.19-1.51,3.71-1.51c0.99,0,1.89,0.24,2.68,0.71
		c0.79,0.47,1.4,1.13,1.82,1.98c0.42,0.85,0.63,1.81,0.63,2.88c0,1.09-0.22,2.06-0.66,2.92c-0.44,0.86-1.06,1.51-1.87,1.95
		c-0.8,0.44-1.68,0.66-2.61,0.66c-1.01,0-1.91-0.24-2.71-0.73c-0.8-0.49-1.4-1.15-1.81-2C336.4,67.99,336.19,67.1,336.19,66.16
		L336.19,66.16z M337.67,66.18c0,1.29,0.35,2.31,1.04,3.05c0.7,0.74,1.57,1.12,2.62,1.12c1.07,0,1.95-0.38,2.64-1.13
		c0.69-0.75,1.04-1.81,1.04-3.19c0-0.87-0.15-1.63-0.44-2.29c-0.29-0.65-0.73-1.15-1.29-1.51c-0.57-0.36-1.21-0.54-1.91-0.54
		c-1.01,0-1.87,0.35-2.6,1.04C338.03,63.42,337.67,64.57,337.67,66.18L337.67,66.18z"/>
	<path class="st1" d="M351.02,71.39V60.65h4.76c0.96,0,1.68,0.1,2.18,0.29c0.5,0.19,0.89,0.53,1.19,1.02
		c0.3,0.49,0.45,1.03,0.45,1.62c0,0.76-0.25,1.4-0.74,1.93c-0.49,0.52-1.25,0.85-2.28,1c0.38,0.18,0.66,0.36,0.86,0.54
		c0.42,0.38,0.81,0.86,1.18,1.43l1.86,2.93h-1.78l-1.42-2.24c-0.42-0.65-0.76-1.14-1.03-1.48c-0.27-0.34-0.51-0.58-0.72-0.72
		c-0.21-0.14-0.43-0.23-0.65-0.29c-0.16-0.03-0.42-0.05-0.79-0.05h-1.64v4.77H351.02L351.02,71.39z M352.44,65.39h3.05
		c0.65,0,1.15-0.07,1.52-0.2c0.36-0.13,0.64-0.35,0.83-0.64c0.19-0.29,0.28-0.62,0.28-0.96c0-0.51-0.18-0.93-0.55-1.25
		c-0.37-0.33-0.95-0.49-1.74-0.49h-3.39V65.39L352.44,65.39z"/>
</g>
<path class="st0" d="M15.55,71.26v-0.63l3.16-5.46h52.55c2.04-3.02,3.66-6.36,4.75-9.92H24.46l3.53-6.09h49.35
	c0.21-1.62,0.34-3.28,0.34-4.96s-0.12-3.34-0.34-4.96h-43.6l3.53-6.09h38.75c-1.1-3.56-2.71-6.9-4.75-9.92H43.02l3.53-6.09h19.56
	C59.37,10.67,50.24,6.69,40.17,6.69c-20.71,0-37.5,16.79-37.5,37.5s16.79,37.5,37.5,37.5c10.07,0,19.2-3.97,25.94-10.43H15.55z"/>
</svg>
